<svg xmlns="http://www.w3.org/2000/svg" viewbox="0,0,816,445" preserveAspectRatio="xMidYMid slice" id="frame">
  <path d="m16.587379,144.460861c119.881416,100.12735 239.612022,200.405502 359.493462,300.532883" />
  <path d="m33.325539,139.937027c121.087776,98.770218 242.175529,197.540451 363.263237,296.310684" />
  <path d="m49.762115,135.714813c122.294113,97.413086 244.588257,194.675354 366.882324,292.08844" />
  <path d="m66.04789,131.341751c123.500465,95.905136 246.850151,191.961044 370.350609,287.866165" />
  <path d="m82.182869,127.119522c124.556038,94.548004 249.112083,189.24678 373.668083,283.794754" />
  <path d="m98.167053,122.897301c8.293686,6.182579 16.587364,12.36515 24.88105,18.547676c3.619064,2.714325 7.238121,5.428604 10.857185,8.142929c2.412704,1.809494 3.769867,0.150757 4.976212,-1.960358c1.960327,-3.468246 2.261917,-7.539719 4.071442,-11.00795c1.357162,-2.563538 2.563507,-4.373032 5.880997,-3.92067c2.261917,0.301605 4.373016,0.753967 6.484146,1.507935c4.523819,1.658768 8.746063,3.769867 12.968292,6.182587c9.952438,5.579346 18.849274,12.21434 27.444565,19.603256c16.436554,14.174637 28.198517,30.008026 36.793808,49.912888c2.865082,6.785736 5.730164,15.230179 10.857147,20.960388c1.357162,1.50795 8.595291,6.785736 10.103241,7.841263c6.936523,5.127045 13.873077,10.254044 20.809601,15.531845c66.952637,49.611282 133.754425,99.373398 200.707092,148.984695" />
  <path d="m113.849655,118.825836c2.865097,2.111115 5.730186,4.222237 8.595291,6.333382c1.809517,1.357132 3.317459,2.865074 5.579376,3.468254c4.523819,1.055573 7.690491,-4.674637 9.198441,-7.539719c1.658737,-3.015884 3.769852,-11.761932 9.047653,-12.21434c2.714294,-0.150795 4.071457,-4.222221 4.674622,-6.031769c1.658737,-4.825386 2.261917,-9.801628 4.071426,-14.476257c1.206375,-3.468246 2.261917,-6.333336 6.333389,-7.690468c2.261917,-0.753975 4.523819,-1.055573 6.936523,-0.904785c4.976212,0.45237 9.500031,1.809517 14.174667,3.619064c10.555603,4.071457 22.468338,12.365143 30.611237,20.206413c6.634933,6.333374 12.5159,13.119118 17.642914,20.809631c7.992096,11.61113 13.269882,24.277847 18.396912,37.396957c2.563507,6.333374 4.976196,12.515915 9.349228,18.095306c2.865112,3.619049 6.031769,6.785736 8.896881,10.404785c7.539703,9.047653 13.571472,18.849289 18.547668,29.555679c3.769867,7.992081 6.634949,16.436554 10.10321,24.579437c2.41272,5.428619 4.674622,10.404846 9.801605,14.023895c6.785767,4.976196 13.571503,9.801636 20.357239,14.777832c18.547699,13.571472 37.246185,26.992157 55.793884,40.563629c37.246155,26.992188 74.492279,54.135162 111.738495,81.127319" />
  <path d="m129.38147,114.754387c5.277802,3.769859 8.746063,3.317482 11.007965,-3.015884c2.412704,-6.333382 4.222244,-12.968323 6.031769,-19.452461c1.960327,-7.539711 3.769867,-15.230217 6.031769,-22.769928c1.50795,-4.825417 2.71431,-9.047653 7.238129,-12.214333c19.904831,-13.873085 52.627182,3.619057 67.555832,14.02388c19.452438,13.42067 38.000168,31.666779 52.024033,50.666817c5.730164,7.841339 10.857147,15.833405 15.079407,24.579483c6.634918,13.269882 11.158752,27.142975 15.984161,41.016006c2.261932,6.182571 4.523834,12.21434 7.841309,18.095322c2.412689,4.071457 5.428589,7.841309 7.841339,12.063538c6.484131,11.30957 11.611145,23.222351 16.888916,34.984283c3.317474,7.388885 6.634949,16.587341 12.5159,22.619141c1.507935,1.507935 10.70639,7.992065 12.365173,9.198456c8.444458,6.031738 17.039703,12.063538 25.484161,18.095306c39.658905,28.198486 79.166992,56.246216 118.825897,84.444763" />
  <path d="m144.762482,110.682961c6.182556,4.222267 7.992096,-5.428604 8.746063,-10.103188c0.90477,-5.881004 1.055573,-11.761978 1.507935,-17.642944c0.452377,-4.825424 1.055573,-9.650818 1.80954,-14.476257c0.904755,-5.730179 2.412704,-11.15876 4.976212,-16.285782c1.507935,-3.166664 3.317474,-5.730164 5.880966,-7.992073c9.349243,-8.746071 22.015961,-10.254013 33.777908,-8.896881c11.611176,1.206375 27.44455,7.539711 37.547775,12.817513c10.404785,5.579384 20.206451,11.761963 29.555664,19.150894c10.706421,8.444481 20.809631,17.492134 30.309662,27.293762c16.738159,17.492096 33.777893,39.05571 44.182709,61.524033c5.428589,11.61113 9.801605,23.674667 14.174652,35.587463c4.373016,11.761917 8.142883,23.674637 13.420654,35.13501c2.714325,6.031769 6.182587,11.761948 8.746094,17.793701c3.468262,7.690521 6.031769,15.83342 8.89682,23.674728c2.261932,6.182556 4.373047,12.214355 8.896851,17.492126c2.563538,2.865082 5.730164,4.523834 8.896851,6.634949c41.619232,28.952515 83.238434,57.904968 124.857635,86.857483" />
  <path d="m159.992691,106.611496c5.277802,3.619064 7.087341,-5.126991 7.841309,-9.198456c1.055557,-5.880966 2.111099,-28.952515 2.714279,-34.833458c0.452393,-4.071465 0.90477,-8.142891 1.658737,-12.063538c0.452408,-2.261917 1.206375,-4.523827 2.261917,-6.634949c1.357147,-2.865089 3.015884,-5.428596 4.976227,-7.841301c8.746063,-10.857185 21.563583,-13.72229 34.381073,-13.72229c12.81752,0 26.84137,4.222252 38.452545,8.896873c45.841431,19.000053 89.270172,61.373222 116.563934,100.88134c6.031769,8.746094 11.761932,17.642944 16.587372,27.293762c6.936493,13.873077 12.214264,28.198532 16.436554,42.976349c4.071411,13.72229 7.388885,27.74614 13.72226,40.714447c2.261932,4.825424 4.674591,9.500061 6.785767,14.325455c2.563477,5.880981 4.674561,11.91272 6.785736,17.944519c1.809509,5.277802 3.769836,10.404816 6.484131,15.381012c1.658752,3.166626 3.468231,6.031769 6.484131,8.142883c4.674622,3.166687 9.349274,6.333313 14.023895,9.500061c9.349213,6.333344 18.698456,12.817505 28.047729,19.150818c21.563568,14.627014 42.976349,29.254089 64.539886,43.881165" />
  <path d="m174.921326,102.690849c5.277802,3.468239 7.087326,-4.976204 7.841293,-9.047661c1.507935,-7.992073 2.111145,-26.992165 2.865112,-34.984261c0.603165,-6.182579 0.904739,-13.72229 3.920624,-19.754059c1.357178,-2.865074 3.015884,-5.730164 4.976227,-8.293678c8.595261,-11.460358 21.412796,-15.833405 34.833481,-16.888947c13.722275,-1.055557 25.936615,1.960327 38.75412,6.031769c24.277893,7.841286 49.008148,23.825493 68.611389,39.206505c21.111206,16.587364 39.357269,35.135025 56.095398,55.944664c40.865265,50.666824 47.651001,83.087585 63.333588,143.706879c3.015869,11.460388 5.126984,23.071533 10.404785,33.928711c3.317505,6.785736 5.428589,7.992126 11.460358,12.063538c7.388916,4.976227 14.92865,9.952423 22.317596,14.928619c22.0159,14.627075 44.031891,29.404877 66.047821,44.031952" />
  <path d="m189.849945,98.770226c5.730194,3.769859 7.690521,-4.674637 8.595276,-9.047661c1.20636,-6.333366 2.714294,-26.539795 3.61908,-32.873138c1.357132,-9.952431 3.769852,-20.658806 9.952393,-29.103302c17.492172,-23.674683 49.309753,-21.563568 73.135223,-15.380997c25.03183,6.634933 50.06369,20.960388 70.722504,35.58744c21.865143,15.531792 41.166809,33.174721 59.111267,53.079567c17.94455,19.904861 33.476349,40.865265 46.143066,64.539917c5.428589,9.952423 8.444489,18.095306 11.460358,28.952515c4.222229,15.53183 6.785736,31.515991 11.30957,46.897003c4.373016,14.928619 10.857208,28.801727 16.888977,42.976379c2.563477,6.031738 4.825378,12.214325 7.992065,18.095276c2.261932,4.071472 4.523804,7.690552 8.293701,10.555603c4.523804,3.468262 9.5,6.182587 14.325439,9.349274c4.825439,3.166656 9.650818,6.333344 14.627075,9.500031c12.515869,8.293671 25.182617,16.436554 37.698547,24.730225" />
  <path d="m204.47699,94.849564c3.769852,2.41272 7.539703,3.015869 10.103226,-1.357132c1.50795,-2.563522 2.111115,-5.277802 2.865112,-7.992081c1.055557,-3.920654 1.809494,-7.841316 2.412674,-11.912773c1.658768,-10.103218 2.563507,-20.357216 4.674652,-30.309631c1.206329,-5.579384 2.714279,-10.555595 5.880936,-15.381012c15.984192,-24.88105 47.198624,-25.785835 71.778061,-20.658806c49.912872,10.555588 99.825745,47.650963 134.05603,82.182846c18.849304,19.000076 35.587463,39.206497 49.912903,61.976425c5.579407,8.896851 10.706421,17.944504 14.928619,27.746124c6.333344,14.777817 11.008026,30.158859 15.53183,45.539886c3.920654,13.571472 7.388916,27.444565 11.158752,41.166809c2.865112,10.253967 7.087341,25.484192 11.158813,35.285828c1.658752,4.071472 3.468201,7.841309 6.333374,11.30957c1.809509,2.261932 4.222229,3.769867 6.634888,5.277802c4.523865,2.865082 9.047668,5.730194 13.571533,8.595306c11.761902,7.539703 23.674622,15.230225 35.436646,22.769928" />
  <path d="m219.707214,90.928909c3.769882,2.412712 7.539719,4.674622 11.309586,7.087349c1.206345,0.753967 2.111099,1.809502 3.619034,0.904724c1.658752,-1.05555 2.563522,-3.468239 3.166687,-4.976189c2.563492,-7.087341 4.373032,-17.793701 5.579376,-25.031853c1.80954,-10.253998 2.865112,-20.658813 5.579407,-30.762016c1.50795,-5.880974 3.166687,-9.500046 6.936523,-14.325447c2.261932,-2.865089 4.674622,-5.277794 7.539703,-7.539711c5.127014,-3.92067 10.555603,-6.785736 16.738159,-8.896866c11.460358,-3.769852 22.468353,-4.071457 34.381073,-3.015884c51.119263,4.674606 104.952759,41.016037 140.238647,73.286018c37.54776,34.230255 74.643127,80.674919 90.627319,130.738564c4.071472,12.81752 7.087341,25.785828 9.801575,38.754135c2.865173,13.11908 5.881042,26.23819 9.801636,39.206512c2.714355,9.047638 4.976257,17.944489 10.404846,26.087372c1.507935,2.261932 3.166626,4.373047 5.579346,5.880981c1.960388,1.20636 3.920654,2.412689 5.880981,3.61908c10.555603,6.634949 20.960449,13.11908 31.516052,19.754028" />
  <path d="m234.786636,87.008247c4.222244,2.714279 8.595261,5.277794 12.817535,7.992073c1.507935,0.904785 3.015884,1.809555 4.373016,2.714325c1.50795,0.904716 2.71431,2.111115 4.373032,2.714294c2.111115,0.753967 3.468262,-1.65876 4.222229,-3.0159c1.960327,-3.769852 2.714294,-7.841324 3.769867,-12.06353c2.714294,-11.912743 4.674622,-23.97628 7.087311,-36.039825c1.20636,-6.182564 2.714294,-13.722275 5.881012,-19.301659c1.809509,-3.166695 4.222198,-6.031769 6.936523,-8.595276c4.373016,-4.373047 9.198425,-7.539703 14.777832,-10.10321c9.801605,-4.373032 19.754028,-5.880981 30.309631,-6.031769c26.087372,-0.452377 54.436707,9.198441 77.055817,20.206429c24.42865,11.912727 46.143066,26.690575 66.952637,44.031914c38.301727,31.817581 78.563782,78.41301 97.563904,125.913177c4.071411,10.103226 7.238098,20.508026 9.650818,31.063629c3.468262,15.53183 5.428589,31.365173 8.595215,47.047821c1.80957,9.198456 4.071472,20.055603 8.595337,28.650909c2.563477,4.976166 5.579407,9.5 9.650818,13.420654c3.166687,3.317505 7.087341,5.428619 11.007996,7.841309c5.730164,3.61908 11.611145,7.087311 17.341309,10.70639" />
  <path d="m248.961304,83.238388c8.444458,5.126999 16.888947,10.25399 25.333435,15.230225c5.127014,3.166641 7.388885,5.730179 10.404785,-1.206375c2.261932,-5.126991 3.317474,-10.404785 4.674652,-15.833397c1.658722,-6.634933 3.166656,-13.119064 4.523804,-19.754028c3.769836,-17.341331 7.238129,-32.873138 24.42868,-43.428734c8.444458,-5.127014 17.039734,-7.388916 26.690552,-8.595276c26.087433,-3.166687 54.436737,4.825409 77.658997,14.627037c24.881042,10.555603 47.047821,24.42868 68.460571,40.714447c21.262024,16.436554 40.412903,34.531868 57.905029,54.88913c15.984131,18.698479 33.928711,43.579521 44.182678,66.349464c4.825439,10.555588 7.690552,21.41275 10.404785,32.571518c3.61908,14.777863 6.634949,29.706482 9.500061,44.635101c2.111145,10.404785 3.61908,20.960388 6.484131,31.365234c1.507996,5.277802 3.468262,12.5159 7.539734,16.888916c1.80957,1.960358 7.841309,5.127014 9.952454,6.484192c4.976196,3.015869 9.952393,6.031738 14.928589,9.047638" />
  <path d="m262.985168,79.468536c9.650818,5.730164 19.301666,11.460373 29.103271,17.341339c2.111145,1.206329 4.22226,2.563454 6.333374,3.769852c1.206329,0.753967 4.523834,3.166687 6.333374,2.563477c1.507935,-0.603165 2.261871,-1.809509 3.015869,-3.0159c1.357147,-2.111099 2.111115,-4.523819 2.865082,-6.785736c1.960327,-5.880959 4.071442,-11.761917 6.031769,-17.642891c3.468262,-9.80162 6.936523,-19.452477 11.007996,-29.103287c2.714294,-6.484154 5.579376,-12.515923 11.158752,-17.341339c7.087311,-6.333359 14.92865,-9.650826 23.976288,-11.761955c25.63501,-6.031769 53.984314,0.60318 77.357422,9.047661c25.182648,9.198448 47.349365,22.317543 69.214539,37.698555c39.658905,27.896935 82.032074,72.833588 104.198822,116.86554c4.071472,8.142868 7.992065,16.285751 10.706421,25.03183c4.825378,16.134964 6.936523,34.381073 8.595215,50.968445c1.20636,11.761963 2.41272,23.373108 5.127014,34.833466c0.754028,3.468262 1.658752,6.785736 3.166687,9.952423c0.904785,1.960327 1.658752,3.769867 3.61908,4.976196c3.015869,2.111115 6.333313,3.769867 9.5,5.730225c4.523865,2.714264 9.047668,5.428558 13.72229,8.142853" />
  <path d="m276.858215,75.849487c11.007996,6.484131 22.166779,12.968307 33.174744,19.452438c4.976227,2.865082 10.10321,5.880981 15.079407,8.746101c3.166687,1.809502 5.277832,1.055527 7.841309,-1.357178c1.658752,-1.507942 6.634979,-8.44445 7.992126,-10.25399c4.523804,-6.182587 6.936493,-10.253998 9.650818,-17.492149c3.166687,-8.896843 5.127014,-18.095306 9.650848,-26.539772c2.714233,-4.976212 6.031769,-9.198463 10.404755,-12.817513c3.317505,-2.714294 6.936554,-4.674637 10.706421,-6.333359c23.976227,-10.254005 52.928741,-5.277794 75.849426,1.809532c25.182678,7.841301 47.500183,19.754028 69.2146,34.079483c40.412842,26.539803 82.182861,68.309814 105.103577,111.738541c3.920654,7.539703 7.841248,14.928619 10.103149,23.22229c4.523865,16.436569 6.182617,34.682678 7.690552,51.420853c1.055542,11.61116 2.261902,22.920731 4.976196,34.381058c0.753967,3.317505 1.658691,6.484192 3.166687,9.650879c0.904724,1.809509 1.658691,3.468262 3.61908,4.674591c7.690491,4.523834 15.380981,9.047638 23.071472,13.420685" />
  <path d="m290.580505,72.230423c22.015961,12.666718 44.031921,25.333466 66.047882,38.000183c1.658752,0.904762 2.865082,2.261917 5.127014,1.960297c2.261902,-0.301559 3.920624,-2.714264 4.976166,-4.373024c3.317505,-5.428596 4.825439,-11.761932 9.952423,-16.436562c2.714325,-2.41272 3.166718,-2.111115 5.127014,-5.277794c2.261902,-3.317505 3.769836,-7.087357 5.127014,-10.857216c2.865082,-7.841263 5.126984,-15.682587 10.706329,-22.468323c4.523834,-5.730179 9.952454,-9.650848 16.587372,-12.365128c5.881012,-2.412704 11.761993,-3.920647 18.095306,-4.523827c12.365143,-1.055573 24.127075,-0.301605 36.190613,2.412689c11.460388,2.563507 22.619141,6.031769 33.627167,10.555595c12.666718,5.277802 24.730255,11.30957 36.492157,18.396927c21.865173,13.269867 41.77002,28.650909 60.166931,46.444603c18.396851,17.944511 34.230286,36.944588 46.746216,59.714516c4.071411,7.539719 8.142883,15.079437 10.70636,23.373108c4.825439,15.682602 6.785767,33.62709 8.444458,49.611298c1.055603,11.158752 2.261963,22.166779 4.976257,33.023926c0.753967,3.166687 1.658691,6.333374 3.166626,9.349243c0.904785,1.80957 1.658752,3.468262 3.619141,4.674652c7.69043,4.674652 15.531799,8.896851 23.22229,13.420685" />
  <path d="m304.151978,68.611382c21.412811,12.063538 42.976349,24.277885 64.38913,36.341423c4.674652,2.714272 9.500031,5.277802 14.174652,7.992065c2.41272,1.357147 4.825409,2.714325 7.087341,4.071472c2.261902,1.357132 4.071411,3.317436 7.238129,1.658737c3.619019,-1.96035 5.428558,-7.087349 7.238129,-10.103233c1.960297,-3.468246 4.071411,-6.785736 7.388885,-9.349258c2.261932,-1.809502 4.825409,-2.865082 7.539734,-3.769844c1.206329,-0.301567 2.563477,-0.60318 3.769836,-0.753975c1.658752,-0.150764 2.865082,-1.055534 3.920654,-2.261909c3.166656,-3.468262 4.825409,-7.539719 6.484131,-11.76194c2.111115,-5.277802 3.920685,-10.706406 6.785767,-15.682617c3.468231,-6.031769 6.484131,-7.841301 12.817505,-10.10321c7.388916,-2.563492 18.396912,-4.222244 26.23819,-3.619049c24.730225,1.809532 48.555725,10.254005 70.119324,21.714355c22.01593,11.761978 41.77002,25.785828 60.016113,42.674797c8.444458,7.841278 16.285767,15.984161 23.8255,24.730255c4.071411,4.825378 7.841309,9.650818 11.460327,14.777802c4.071411,5.730209 7.841309,11.460373 11.158752,17.64296c5.127014,9.650818 7.388916,19.754044 9.650879,30.158844c2.865051,13.722275 5.277771,27.595322 8.444458,41.317612c1.960327,8.595276 4.071472,17.190506 6.936523,25.635025c1.960327,5.428589 3.769897,10.555603 7.992065,14.928589c2.261963,2.261932 7.690552,4.976257 10.254089,6.484192c5.277771,3.0159 10.555542,5.880981 15.682556,8.896851" />
  <path d="m317.572662,65.143082c20.809601,11.611122 41.77002,23.222305 62.57962,34.682678c10.254028,5.730164 20.507965,11.309563 30.611206,17.039726c5.277802,2.865082 10.555573,5.880966 15.833374,8.746094c2.714294,1.507942 5.428619,3.015892 7.992096,4.523827c3.317474,1.809509 4.976227,3.317444 8.293671,0.150757c2.865143,-2.714264 4.22226,-6.031769 5.881012,-9.349213c1.658691,-3.468292 3.317444,-6.785744 5.880981,-9.801628c1.507935,-1.809547 3.015869,-3.31749 5.730164,-3.619057c1.80954,-0.301613 3.619049,-0.452408 5.579376,-0.452408c4.825409,-0.150795 7.388916,1.357147 11.30957,-3.166687c2.714294,-3.015884 4.373047,-6.634933 5.880981,-10.25399c1.658752,-3.769859 3.468231,-7.388908 6.031769,-10.706398c2.111115,-2.865089 4.674622,-4.674637 7.992065,-5.880974c2.714325,-0.904762 5.277802,-1.507942 8.142944,-1.960289c5.579346,-0.753975 10.857147,-0.753975 16.436554,-0.15081c10.404785,1.055527 25.63501,5.579353 35.285828,9.500015c20.80957,8.595291 43.277954,23.373108 60.16687,38.301727c16.888977,14.928673 34.230347,34.984261 42.825562,56.698647c4.22229,10.70639 6.936584,21.563599 9.801636,32.571564c3.166687,12.063538 6.031799,24.277863 9.349243,36.341415c1.80957,6.936539 4.373047,15.833389 9.500061,21.563553c1.960327,2.261902 8.595276,5.579407 11.007996,6.936554c10.10321,5.579376 20.357239,11.30954 30.460388,16.888977" />
  <path d="m330.84256,61.674828c38.75412,21.111191 77.357391,42.222389 116.111542,63.33358c8.746033,4.825455 17.642944,9.650833 26.388977,14.476257c2.111115,1.206345 4.373016,2.412735 6.484131,3.619049c1.055573,0.60318 5.428619,3.015884 6.634979,3.317505c3.0159,0.452362 5.277802,-1.960358 6.785767,-3.769852c2.714264,-3.468307 4.373016,-7.539719 7.08728,-11.008011c4.523834,-5.579353 7.841339,-6.031776 14.476288,-5.880974c4.976196,0.150803 9.801575,1.055588 14.627014,2.111115c5.127014,1.05558 9.952393,2.412712 14.92865,4.222267c7.238098,2.563477 12.365112,-4.222267 16.738159,-7.539703c4.523804,-3.468307 8.746033,-5.127007 14.476196,-4.674644c5.127075,0.452362 9.500061,2.111107 14.023926,4.222221c4.976196,2.261917 9.5,5.127045 14.023804,8.293686c5.42865,3.769852 10.404785,7.388947 13.873108,13.420715c3.769836,6.333328 5.880981,13.11908 8.444458,19.754013c2.261963,5.579407 4.523865,10.857208 8.896851,15.531845c2.865112,3.166672 6.484131,5.428589 9.650879,8.142868c3.468201,3.015884 7.087341,6.182571 10.253967,9.500015c6.785706,6.785736 12.666748,13.873093 17.039795,22.619141c3.015869,6.182571 5.277771,12.817505 7.690491,19.150879c1.960327,5.428604 4.071411,10.4048 8.142883,14.928619c3.317444,3.769852 7.841248,5.428604 12.063538,7.690506c4.071411,2.261932 8.142883,4.523834 12.365112,6.785767c11.007996,6.031769 22.015991,12.063538 33.023926,18.095306" />
  <path d="m343.96167,58.206566c35.889038,19.301659 71.777985,38.452507 107.667053,57.754189c17.944519,9.650826 35.889008,19.301651 53.833527,28.952484c8.746063,4.674622 17.642914,9.500046 26.389008,14.174683c4.523804,2.412674 9.047607,4.825378 13.571472,7.238098c1.658752,0.904785 11.912781,6.634933 13.873047,6.936539c6.182617,1.055557 10.254028,-3.920654 14.476257,-6.333374c4.674622,-2.714279 8.896851,-3.166672 14.023865,-2.412704c8.896851,1.357178 20.055664,7.690506 27.293762,12.365143c3.317505,2.111099 6.634949,3.920654 9.349243,6.785736c4.373047,4.222229 6.634949,9.198456 8.896851,14.476257c2.563477,6.182571 4.674622,12.365097 8.746094,17.944504c3.166687,4.373016 5.277771,4.976181 9.650818,7.388916c35.889038,19.301682 71.778015,38.45253 107.667114,57.754227" />
  <path d="m356.929932,54.738297c139.032227,73.436798 278.064514,146.873566 417.247681,220.310379" />
  <path d="m369.747467,51.420822c139.635437,72.532013 279.120087,145.064041 418.755585,217.596085" />
  <path d="m382.564972,48.103348c139.936981,71.627266 280.024811,143.405334 419.961945,215.032578" />
  <path d="m395.080902,44.785858c140.389435,70.722504 280.929657,141.595795 421.319122,212.318298" />
  <path d="m813.384094,236.746948c-163.762573,68.158997 -327.675873,136.167236 -491.438385,204.326172" />
  <path d="m798.003113,229.207245c-21.714417,8.896851 -43.428772,17.793701 -65.143188,26.539795c-9.801636,4.071411 -19.603271,7.992065 -29.404907,12.063538c-2.563416,1.055511 -4.976135,2.111115 -7.539673,3.015869c-1.809509,0.753967 -5.277832,2.41272 -7.539734,2.261932c-3.015869,-0.301636 -5.277771,-2.714355 -6.785706,-4.976257c-2.563477,-3.920624 -3.920654,-8.293671 -6.182556,-12.214294c-3.166687,-5.277802 -6.031738,-8.746094 -12.817505,-7.992126c-4.976257,0.60318 -9.500061,1.809555 -14.174683,3.468307c-5.127014,1.960312 -9.952393,4.523819 -14.627014,7.539719c-6.785767,4.222198 -11.158752,10.10318 -15.53186,16.436554c-4.071411,6.182556 -7.992065,12.365082 -12.365051,18.396881c-3.769897,5.277802 -7.539734,10.404816 -12.214355,15.079407c-8.142883,8.142914 -14.777832,9.801605 -24.881042,13.873108c-86.857513,35.436615 -173.564178,71.024078 -260.4216,106.460724" />
  <path d="m782.923645,221.818283c-24.277832,9.80162 -48.404907,19.452438 -72.682861,29.254074c-4.071411,1.658752 -7.992065,3.166687 -12.063538,4.825439c-1.960327,0.753967 -4.071411,1.658722 -6.031738,2.412689c-2.111145,0.904755 -3.769897,1.055542 -5.880981,-0.150787c-2.714294,-1.658752 -3.920654,-3.920654 -5.277832,-6.484177c-2.111084,-3.920609 -3.317444,-8.142883 -4.825378,-12.214294c-3.468262,-9.80162 -6.484192,-19.603256 -9.500061,-29.555679c-1.507935,-4.674637 -3.166687,-9.198456 -5.730164,-13.269928c-1.658752,-2.714279 -3.166687,-4.825378 -6.484192,-5.880951c-4.976196,-1.50795 -9.349182,-1.206345 -14.325439,0c-5.579346,1.357132 -10.253967,3.769852 -15.079407,6.785736c-6.936523,4.523819 -11.611145,10.555588 -15.984131,17.341339c-4.22229,6.785736 -14.476257,26.388977 -18.246155,33.325531c-6.333374,11.91272 -12.51593,23.82547 -18.698486,35.738251c-4.825378,9.198395 -8.746094,18.547668 -15.984192,26.539764c-4.674622,5.127014 -8.142883,5.881012 -14.174622,8.29364c-9.500061,3.769897 -19.000061,7.690552 -28.349365,11.460388c-24.277863,9.801636 -48.404938,19.452454 -72.68277,29.254059c-48.404907,19.452515 -96.960693,39.055756 -145.365662,58.508209" />
  <path d="m768.145813,214.429382c-25.031799,9.952423 -49.912903,19.754044 -74.944763,29.706421c-3.468262,1.357193 -6.182495,1.960358 -9.5,-0.452362c-4.222229,-3.015884 -6.634949,-8.746033 -8.444519,-13.11911c-3.468201,-8.444443 -5.579346,-17.190491 -7.539673,-26.087387c-1.960327,-9.047668 -3.61908,-17.944504 -7.841309,-26.389008c-1.809509,-3.619034 -4.222229,-6.333313 -7.690491,-8.59523c-2.563538,-1.658737 -5.277832,-3.015884 -8.142883,-3.920654c-5.881042,-1.809555 -11.30957,-1.809555 -17.190552,-0.90477c-13.72229,2.412704 -26.992188,10.70639 -36.793823,19.754044c-7.388916,6.785736 -13.11908,14.325455 -18.246094,22.769943c-9.047668,14.928619 -14.325439,31.063614 -20.507996,47.047775c-3.769836,9.650848 -7.690491,19.301697 -11.912781,28.801697c-3.317444,7.238159 -6.484131,14.32547 -11.007935,20.809631c-2.865112,4.071442 -5.579407,7.69046 -10.555603,9.650848c-3.468262,1.357117 -6.936554,2.714264 -10.404816,4.071381c-25.03183,9.952423 -49.912872,19.754089 -74.944733,29.706512c-49.912872,19.754059 -99.976532,39.508087 -149.889435,59.262115" />
  <path d="m753.669617,207.342072c-13.722229,5.428604 -27.595337,10.706406 -41.317627,16.13501c-5.881042,2.261902 -11.761963,4.674576 -17.793762,6.936478c-3.015869,1.20639 -6.031738,2.261917 -9.047668,3.468307c-1.507935,0.603165 -3.015869,1.206345 -4.523804,1.809509c-1.507935,0.60321 -2.865051,1.357178 -4.523804,1.658737c-4.071411,0.753983 -6.333374,-6.182571 -7.087341,-8.746048c-3.015869,-9.198456 -3.769836,-18.698471 -5.579407,-28.047729c-2.563477,-14.023849 -5.126953,-27.142975 -13.11908,-39.508118c-4.222229,-6.634933 -9.349243,-11.158752 -16.738159,-14.174637c-5.880981,-2.41272 -11.761963,-3.166687 -18.095276,-2.865082c-13.873108,0.753967 -27.746155,7.690521 -38.603333,15.23024c-8.444519,5.880951 -15.833374,12.515884 -22.317566,20.658768c-11.158752,14.02388 -18.698486,29.103317 -24.881042,45.690674c-5.880981,15.833389 -10.10321,32.119156 -16.285767,47.801743c-3.920685,10.103241 -8.293701,19.603241 -15.230255,28.198547c-6.333313,7.690491 -9.5,8.595306 -18.246094,12.063538c-6.182526,2.41272 -12.365112,4.825439 -18.396881,7.238098c-12.666687,4.976227 -25.182648,9.801636 -37.849365,14.777863c-51.420807,20.055603 -102.841614,39.96048 -154.262451,60.016083" />
  <path d="m738.590149,199.953125c-14.174622,5.428589 -28.349243,10.857193 -42.373169,16.285751c-6.182556,2.41272 -12.214355,4.674637 -18.396912,7.087357c-3.166626,1.206329 -6.182495,2.412704 -9.349182,3.619049c-1.507996,0.603165 -3.166687,1.206375 -4.674683,1.80954c-1.658752,0.60318 -2.865051,1.357147 -4.523804,-0.150803c-1.507935,-1.357132 -2.111084,-3.015884 -2.714294,-4.674637c-1.055542,-2.865082 -1.809509,-5.880951 -2.41272,-8.896835c-1.960327,-9.650833 -2.714294,-19.603256 -4.071472,-29.254074c-1.055481,-8.595291 -2.412659,-17.03978 -4.523804,-25.484222c-1.20636,-4.825424 -2.563477,-9.500061 -5.579346,-13.72229c-19.754089,-27.746124 -50.214478,-23.3731 -75.849487,-8.896835c-9.650879,5.428543 -18.095337,11.912735 -25.936646,19.9048c-13.420715,13.571487 -20.960388,26.087433 -28.349274,43.428772c-5.127045,11.761932 -8.896912,23.82547 -12.515961,36.03981c-4.373016,14.928619 -7.388885,30.309647 -12.51593,45.087479c-1.960327,5.579376 -4.373047,12.817505 -8.746063,17.492126c-2.41272,2.563477 -5.428589,3.166687 -8.444489,4.373047c-5.730164,2.111084 -11.460358,4.372986 -17.039734,6.484131c-11.611176,4.523804 -23.22229,8.896881 -34.984283,13.420715c-52.928711,20.20639 -105.857483,40.563629 -158.786285,60.77005" />
  <path d="m723.963135,192.715012c-14.3255,5.428604 -28.500122,10.706406 -42.825562,16.13501c-6.182556,2.261902 -12.365173,4.674576 -18.547729,6.936493c-3.166626,1.206375 -6.333313,2.41272 -9.349243,3.468292c-1.507935,0.603165 -3.166687,1.206329 -4.674622,1.809494c-2.261902,0.904785 -3.317444,0 -4.523804,-1.809494c-2.563538,-4.071457 -3.468262,-9.80162 -4.373047,-14.325455c-1.658752,-9.198456 -2.41272,-18.396912 -3.317444,-27.595352c-0.904785,-8.746063 -1.960327,-17.492111 -3.61908,-26.238205c-1.055603,-5.579361 -2.111084,-11.007965 -4.523804,-16.134949c-3.01593,-6.785751 -11.30957,-13.873093 -17.492188,-17.341339c-6.031738,-3.31749 -12.063538,-5.428604 -18.849243,-6.333382c-13.72229,-1.809532 -27.896973,1.658745 -40.111267,7.238121c-11.007996,4.976227 -20.507996,11.30957 -29.555664,19.150879c-11.611176,10.103226 -25.03183,24.881042 -31.817566,39.206497c-5.880981,12.365143 -9.650848,25.333405 -13.119141,38.452515c-3.920654,14.62706 -8.142883,29.103271 -13.119049,43.428741c-3.61911,10.857178 -7.841339,24.127045 -14.777863,33.627136c-4.523834,6.333313 -7.841278,6.634949 -14.476257,9.198456c-9.801636,3.769836 -19.754028,7.388885 -29.555634,11.158752c-53.682709,20.206421 -107.516296,40.412842 -161.199005,60.77005" />
  <path d="m710.090027,185.929276c-13.873108,5.126999 -27.746155,10.253983 -41.619202,15.381027c-6.031799,2.261917 -11.91272,4.373032 -17.944519,6.634933c-3.015869,1.055542 -5.579407,2.111115 -8.896851,0.452362c-3.769836,-1.809494 -6.484192,-5.730148 -8.142883,-9.198456c-2.714294,-5.579361 -4.22229,-11.309555 -5.579407,-17.341324c-2.111084,-9.198425 -3.317505,-18.698486 -4.825439,-28.047699c-1.357117,-8.142914 -2.865051,-16.134995 -5.428528,-23.976303c-1.507935,-4.523834 -3.166687,-8.746063 -6.333374,-12.515915c-20.809631,-24.428688 -51.571655,-23.82547 -78.111389,-12.063545c-11.30957,4.976204 -21.262024,11.611176 -30.611267,19.452446c-12.666718,10.706406 -23.071503,22.468338 -31.968353,36.643036c-5.881012,9.349213 -10.706421,19.000046 -14.32547,29.555634c-5.881012,16.587357 -9.500061,33.627136 -14.476257,50.365311c-3.468292,11.611115 -7.087341,23.071503 -12.365143,34.079468c-3.317444,6.634979 -6.484131,12.817474 -12.365082,17.793732c-3.769867,3.166687 -8.142944,4.222229 -12.365143,5.880981c-4.222229,1.507935 -8.29364,3.166687 -12.5159,4.674622c-53.230377,19.754028 -106.611542,39.508057 -159.841873,59.262085" />
  <path d="m696.669373,179.294342c-13.269897,4.825439 -26.539795,9.650818 -39.809692,14.476257c-5.730164,2.111099 -11.30957,4.071457 -17.039734,6.182571c-1.960327,0.753967 -6.031738,2.865067 -8.444458,1.357132c-1.960388,-1.206329 -2.865112,-2.865082 -3.769897,-4.825439c-1.507935,-3.015884 -2.563477,-6.182526 -3.468262,-9.500015c-2.261902,-8.142868 -4.071411,-16.436554 -6.182556,-24.730225c-2.111145,-8.142899 -4.222229,-16.135025 -6.333374,-24.277893c-1.809509,-6.785751 -3.920654,-13.42067 -6.936523,-19.904861c-1.960327,-4.373024 -4.373047,-8.293686 -7.539734,-12.063538c-20.960388,-24.127075 -51.873169,-24.27784 -78.865356,-13.722237c-26.388977,10.4048 -49.158936,31.515991 -65.143127,53.984306c-6.484131,9.349274 -11.611115,19.150894 -15.984192,29.555695c-6.936493,15.984192 -11.761932,32.571548 -15.984161,49.46048c-3.317474,13.42067 -5.730194,26.992157 -9.801605,40.26207c-1.357178,4.523834 -2.865143,8.896851 -4.825439,13.11908c-1.357147,2.714325 -2.563507,5.277802 -4.825439,7.388947c-1.507935,1.357147 -8.142883,3.619049 -9.801575,4.222229c-3.317505,1.206329 -6.634949,2.41272 -9.952393,3.619049c-53.6828,19.603271 -107.36554,39.206482 -161.048279,58.809753" />
  <path d="m683.399414,172.659393c-13.269836,4.825439 -26.388977,9.500031 -39.658875,14.325455c-5.579407,1.960312 -11.30957,4.071472 -16.888916,6.031769c-1.357178,0.452362 -2.865112,1.055588 -4.222229,1.50795c-1.507935,0.603165 -2.714355,0.753967 -4.22229,-0.150818c-1.960327,-1.206329 -2.865051,-3.015869 -3.769836,-4.976166c-1.507935,-3.166702 -2.563477,-6.484192 -3.468262,-9.952438c-2.261902,-8.444489 -3.920654,-16.888977 -6.031799,-25.33342c-1.960327,-7.992126 -4.071411,-15.984192 -6.333374,-23.825516c-3.015869,-10.706398 -6.634888,-22.9207 -14.174622,-31.968353c-20.357239,-24.42868 -49.912903,-27.896927 -78.111389,-18.698509c-27.44458,9.047653 -50.66687,28.34935 -68.159027,50.214516c-6.634918,8.293671 -12.063538,17.190521 -17.039734,26.388992c-3.61908,6.634918 -6.182556,13.571472 -8.444458,20.658768c-3.317505,10.103226 -6.031769,20.357208 -8.444489,30.762054c-4.372986,18.698486 -8.444489,37.246155 -16.587372,55.039886c-2.412689,5.127014 -4.976166,10.10318 -8.293671,14.627014c-2.41272,3.166718 -4.825439,5.730225 -8.444489,7.539703c-3.166687,1.507965 -6.484131,2.41272 -9.801605,3.61908c-3.317444,1.20636 -6.634949,2.412689 -9.952454,3.61911c-6.634888,2.412628 -13.269867,4.825348 -20.055603,7.238098c-13.72226,4.976166 -27.293732,9.801605 -41.015991,14.777802c-26.992188,9.650848 -53.833572,19.301697 -80.825729,29.103333" />
  <path d="m670.280334,166.175217c-13.269836,4.674637 -26.388977,9.349213 -39.658813,14.023849c-5.579407,1.960358 -11.30957,3.92067 -16.888977,6.031769c-2.111145,0.753967 -5.880981,2.865082 -8.444519,1.055573c-1.960266,-1.357132 -2.865051,-3.166672 -3.920593,-5.277802c-1.658752,-3.31749 -2.563538,-6.634933 -3.61908,-10.103226c-2.261963,-8.293686 -4.071472,-16.738174 -6.031799,-25.031845c-1.960327,-7.992065 -4.071411,-15.984161 -6.333313,-23.97628c-3.015869,-10.857155 -6.634949,-23.222298 -14.174683,-32.420761c-19.904846,-24.428627 -49.309692,-30.008034 -78.11142,-21.865166c-27.595337,7.690521 -52.174805,26.539803 -70.270111,47.801788c-19.603271,22.9207 -30.460358,47.95256 -38.452484,76.452698c-2.261932,7.841278 -4.22226,15.682587 -6.031769,23.674667c-2.111145,9.047653 -3.769897,18.246109 -5.881012,27.293777c-1.658722,6.936523 -3.317413,13.873077 -5.880951,20.508026c-1.507935,3.920654 -2.865051,7.841309 -6.031769,11.007965c-1.357117,1.357178 -3.166687,1.960327 -4.825409,2.563507c-1.658691,0.603149 -3.317474,1.206329 -4.976227,1.80954c-3.317474,1.206329 -6.634918,2.412689 -9.952423,3.468262c-6.634918,2.412689 -13.420685,4.674622 -20.055634,7.087341c-13.72226,4.825409 -27.44455,9.650818 -41.016022,14.627014c-27.14296,9.650818 -54.135132,19.150879 -81.278091,28.801727" />
  <path d="m657.46283,159.841888c-13.269836,4.674637 -26.690552,9.349258 -39.960449,14.023849c-5.730164,1.960358 -11.30957,3.920654 -17.039734,6.031769c-1.507935,0.452423 -2.865051,1.055573 -4.373047,1.507935c-1.658691,0.452423 -2.865112,0.150803 -4.222229,-0.904724c-4.373047,-3.166672 -6.333313,-9.952423 -7.690552,-14.476242c-4.825378,-15.381042 -8.595215,-30.912827 -12.365051,-46.444664c-1.80957,-7.388908 -3.769897,-14.777817 -6.484192,-21.865166c-1.809509,-4.825378 -3.920593,-9.19841 -7.087341,-13.269875c-19.150879,-24.730263 -47.349335,-32.269981 -76.905029,-25.785828c-28.198547,6.031769 -53.230377,23.825523 -72.230469,44.333496c-7.690521,8.293686 -14.627014,17.190582 -20.658783,26.841423c-3.769836,6.031769 -7.087311,12.063538 -10.254028,18.396851c-4.674622,9.500061 -7.388885,19.301697 -9.952423,29.404877c-4.372986,17.190582 -7.08728,34.682678 -11.460327,51.722458c-2.563477,10.253983 -5.579376,21.714355 -11.761963,30.762009c-2.563477,3.920654 -5.428558,7.539703 -9.047668,10.555603c-2.865051,2.41272 -5.88092,3.769836 -9.349243,4.976196c-6.333282,2.261902 -12.666656,4.373047 -19.000031,6.634979c-12.968323,4.523804 -25.936646,9.047638 -38.904907,13.571472c-26.992157,9.5 -54.135147,18.849274 -81.127304,28.349274" />
  <path d="m644.192932,153.357712c-14.023865,4.825378 -28.047729,9.650833 -42.071594,14.476257c-6.031738,2.111099 -12.063538,4.222229 -18.095276,6.182526c-8.595337,2.865128 -14.476257,-2.865082 -17.642944,-10.103195c-2.41272,-5.880966 -3.920654,-11.761978 -5.127014,-17.944504c-1.960327,-9.349243 -3.166687,-18.698471 -4.825439,-28.047729c-1.357117,-7.992126 -2.865051,-15.833397 -5.127014,-23.674713c-1.357117,-4.825378 -2.714233,-9.500023 -5.730164,-13.72229c-17.793701,-25.484192 -44.936676,-35.889 -75.246277,-31.515961c-28.500153,4.071442 -54.88916,20.809616 -74.793915,40.412872c-8.293732,8.293671 -15.682587,17.039734 -22.317596,26.841354c-4.071411,5.880959 -7.841248,11.91272 -11.007965,18.246094c-4.523834,9.047653 -7.841309,18.396881 -10.857208,28.047745c-4.222198,13.42067 -7.841248,26.992157 -11.309509,40.563644c-2.714325,10.253983 -7.841309,32.722321 -11.007996,42.825546c-1.809509,5.579407 -4.22226,12.515884 -8.293701,17.190536c-2.412659,2.865082 -5.579346,3.468292 -8.746033,4.674622c-5.880981,1.960297 -11.761932,4.071472 -17.793701,6.031769c-12.063538,4.222229 -24.127075,8.293701 -36.190613,12.51593c-27.142975,9.349243 -54.436752,18.698517 -81.579727,28.047729" />
  <path d="m631.22467,147.024384c-14.325439,4.825424 -28.65094,9.650818 -42.976379,14.62706c-6.182556,2.111115 -12.365112,4.222214 -18.698486,6.333328c-3.166687,1.055588 -6.333374,2.111099 -9.500061,3.166687c-0.603149,0.150818 -3.920593,1.507935 -4.674561,1.357132c-2.41272,-0.452347 -3.769836,-4.071411 -4.373047,-5.880966c-2.111145,-5.730164 -3.166687,-11.611176 -4.222229,-17.492142c-1.658752,-9.349213 -2.563538,-18.849274 -3.920654,-28.198486c-1.055542,-8.142929 -2.41272,-16.285805 -4.222229,-24.277878c-1.206421,-5.428604 -2.41272,-10.706406 -4.674622,-15.833389c-3.166687,-7.388916 -11.007996,-16.738182 -16.888977,-21.865196c-5.428558,-4.674606 -11.30957,-8.444466 -17.793701,-11.46035c-12.214355,-5.579384 -24.127075,-7.539711 -37.396973,-6.936546c-29.25412,1.206367 -57.452606,16.888954 -78.262207,35.436646c-9.198425,8.142891 -17.341309,17.190544 -24.730255,27.142967c-4.523834,6.031769 -8.595245,12.21434 -12.365082,18.698471c-4.674652,8.293686 -8.746094,16.738174 -12.063538,25.635025c-10.254059,27.896927 -11.611176,57.151047 -18.095306,85.651154c-1.507965,6.785736 -3.468323,15.531784 -7.690552,21.563553c-2.111084,3.166702 -5.277771,3.619034 -8.293671,4.825424c-5.730164,1.960297 -11.30957,3.920654 -17.039734,5.730164c-11.611145,3.920654 -23.222321,7.841339 -34.682663,11.761993c-27.595367,9.349213 -55.341492,18.698486 -82.936844,28.198486" />
  <path d="m619.010315,140.992615c-14.325439,4.825424 -28.500122,9.500015 -42.825562,14.325439c-6.182556,2.111115 -12.365112,4.071472 -18.547668,6.182587c-3.166687,1.055527 -6.333374,2.111099 -9.349243,3.166687c-0.603149,0.150757 -4.071472,1.357147 -4.674622,1.357147c-2.41272,-0.150818 -3.769897,-3.468307 -4.523865,-5.127014c-2.41272,-5.730209 -3.468201,-11.611176 -4.674622,-17.492126c-1.809509,-9.349274 -2.865051,-18.849274 -4.372986,-28.34935c-1.20636,-7.841263 -2.714294,-15.68261 -4.674683,-23.523865c-1.357117,-5.127037 -2.714233,-10.254044 -5.126953,-15.079422c-2.261902,-4.674629 -5.127014,-8.746101 -8.142883,-12.817528c-2.563538,-3.317474 -5.277802,-6.484169 -8.444489,-9.198463c-5.277802,-4.825417 -11.007965,-8.746048 -17.341339,-11.912727c-11.761932,-5.880974 -23.373108,-8.293686 -36.341431,-8.444496c-29.254059,-0.30159 -57.301788,13.72229 -78.865326,31.516006c-9.5,7.841324 -17.944489,16.587372 -25.785828,26.23819c-9.801636,12.063538 -20.055634,27.746132 -25.333405,42.674789c-9.952454,27.595337 -11.460388,56.547852 -19.452454,84.293976c-3.166687,11.00795 -6.785736,21.111191 -14.777863,30.008041c-5.428558,6.031769 -8.595245,6.484131 -15.833405,8.896851c-10.857147,3.619049 -21.714355,7.238159 -32.571518,10.857208c-27.444565,9.198456 -54.738327,18.396881 -82.182877,27.444519" />
  <path d="m606.946777,134.960846c-14.174622,4.674637 -28.500122,9.349258 -42.674744,14.023834c-6.182556,2.11116 -12.365173,4.071472 -18.547729,6.182571c-3.166626,1.055603 -6.182495,2.111115 -9.349182,3.166702c-5.42865,1.80954 -6.484192,2.261902 -9.198486,-3.317505c-2.865051,-5.880966 -4.071472,-11.912735 -5.277771,-18.246063c-1.960327,-9.349258 -3.166687,-18.849274 -4.976196,-28.349335c-2.563538,-12.66671 -5.127045,-24.881058 -11.158813,-36.49218c-7.992096,-15.381035 -17.793701,-26.389008 -33.3255,-34.682693c-11.460358,-6.031769 -22.769928,-8.746078 -35.587433,-9.198463c-29.103333,-1.206337 -57.151031,11.912758 -79.016174,28.952507c-9.801666,7.690491 -18.396912,16.134987 -26.389008,25.63501c-10.70639,12.666748 -19.603271,25.936615 -25.936615,41.468407c-4.976196,11.912781 -8.444458,24.127075 -11.761963,36.492218c-4.222198,15.381027 -7.841278,30.762024 -11.158752,46.293854c-1.658722,7.992065 -3.317444,15.984146 -6.031769,23.674667c-1.658722,4.825439 -3.166656,9.500061 -6.484131,13.571472c-2.41272,3.015884 -3.61908,3.166702 -6.936554,4.222275c-2.412689,0.753967 -4.825409,1.507935 -7.087341,2.412659c-9.650833,3.166702 -19.301651,6.333374 -28.952499,9.500092c-27.14296,9.047638 -54.436691,17.944489 -81.579666,26.992126" />
  <path d="m595.184814,129.230637c-14.174683,4.674622 -28.500122,9.198456 -42.674744,13.873032c-6.182617,1.960358 -12.365173,4.071457 -18.547729,6.031769c-3.166687,1.055588 -6.182556,1.960358 -9.349243,3.015884c-4.976196,1.658752 -6.333374,2.261917 -9.198425,-2.714264c-3.317505,-5.579407 -4.523834,-11.611176 -6.031769,-17.793701c-1.960358,-8.746101 -3.619049,-17.642937 -5.880981,-26.238235c-3.166687,-12.81752 -6.936523,-25.484222 -12.666748,-37.54776c-7.388916,-15.833374 -17.341339,-26.690575 -32.873108,-34.984261c-11.158783,-6.031769 -22.317535,-8.896843 -34.833496,-9.801628c-29.10321,-1.809509 -56.849335,10.404816 -79.166901,27.29377c-22.920715,17.190567 -41.016022,39.508095 -53.079559,65.595512c-4.523834,9.952431 -8.444489,19.904877 -11.158783,30.460464c-4.523834,17.190521 -7.087341,34.53186 -9.801636,52.024002c-1.357147,8.746048 -2.865082,17.341339 -5.428589,25.936584c-1.20636,4.22226 -3.0159,9.80162 -6.182556,13.420715c-1.960327,2.111115 -4.373047,2.412674 -6.785767,3.317444c-2.261887,0.753967 -4.523819,1.50795 -6.785721,2.261917c-9.198425,3.015884 -18.547684,6.031769 -27.746124,9.047653c-27.14299,8.746094 -54.135147,17.642944 -81.278122,26.389008" />
  <path d="m583.573669,123.500473c-14.325439,4.674622 -28.801697,9.198456 -43.127136,13.873093c-6.182556,1.960297 -12.51593,4.071411 -18.698486,6.031769c-3.166687,1.055527 -6.333313,2.111099 -9.5,3.015884c-3.468323,1.055527 -6.182587,1.809494 -9.500092,-0.60318c-3.166626,-2.261902 -4.976196,-5.277786 -6.785736,-8.444473c-3.015869,-5.428604 -4.825378,-11.309563 -6.634949,-17.190544c-5.277771,-17.793739 -7.388885,-36.341408 -13.269867,-53.984367c-1.80954,-5.579369 -3.920654,-10.85717 -7.690521,-15.682587c-2.41272,-3.166695 -4.976166,-6.182579 -7.841309,-9.047653c-4.825378,-4.825409 -10.253998,-8.746063 -16.134949,-12.214348c-10.555603,-6.031769 -21.412811,-9.198433 -33.476349,-10.404778c-29.254028,-2.865112 -56.698578,8.142868 -79.468536,24.579453c-23.523865,17.039734 -41.317627,38.452515 -54.28595,64.389137c-4.976166,9.801628 -7.690491,17.944504 -10.10318,28.650902c-4.071442,17.793701 -5.880951,35.889008 -8.444489,53.984314c-1.20636,9.047653 -2.714294,18.095306 -5.126984,26.992203c-1.20636,4.222229 -2.71431,9.952377 -5.880966,13.420685c-1.960327,1.960297 -4.222275,2.111099 -6.634979,2.865082c-2.261902,0.753967 -4.523834,1.50795 -6.634949,2.111099c-9.047653,2.865082 -18.095306,5.880981 -27.14296,8.746094c-26.992157,8.746063 -53.984314,17.341339 -80.976479,26.087402" />
  <path d="m572.113281,117.921066c-26.992126,8.595238 -53.984314,17.190536 -80.976501,25.63501c-1.206329,0.301575 -2.261902,0.753983 -3.468231,1.055542c-1.20636,0.30162 -2.261932,0.90477 -3.468262,1.055588c-3.61911,0.452347 -6.031769,-7.238113 -6.634979,-9.500031c-3.317444,-10.103218 -4.825378,-20.357224 -6.484131,-30.762054c-1.80954,-11.309578 -3.769867,-22.468338 -6.634949,-33.476295c-1.658752,-6.333382 -3.166687,-12.66674 -6.785736,-18.396896c-2.111115,-3.468277 -4.523834,-6.785744 -7.087341,-9.952423c-4.222229,-5.277802 -9.047668,-9.801628 -14.476257,-13.72229c-9.198425,-6.785744 -18.849274,-11.007973 -30.008057,-13.420677c-28.650848,-6.484146 -57.301758,1.80954 -81.127258,16.587372c-24.42865,15.230217 -43.730316,36.039841 -57.904968,60.920883c-2.111115,3.769852 -4.222229,7.388901 -5.880951,11.309563c-2.41275,5.579407 -4.071472,11.30957 -5.579407,17.039742c-4.523834,17.642929 -6.484146,35.587433 -9.801636,53.38118c-1.357132,7.539719 -2.865082,14.928619 -4.976212,22.317535c-1.507935,4.976196 -3.015884,9.952423 -5.428574,14.62706c-3.015884,5.730164 -6.484177,10.70636 -11.912735,14.627014c-3.920685,2.865082 -8.293716,3.769852 -12.817535,5.126984c-4.373047,1.357193 -8.595261,2.71434 -12.968307,4.071472c-26.992172,8.595276 -53.984329,17.190521 -80.976501,25.63501" />
  <path d="m560.803711,112.341705c-26.539795,8.293678 -53.230316,16.738174 -79.770111,25.03186c-2.563507,0.753967 -4.976227,1.809494 -7.690521,2.412704c-4.071442,0.753983 -6.634918,-7.087341 -7.539703,-9.500061c-3.619049,-10.253975 -5.126984,-20.80957 -7.388916,-31.214378c-2.111115,-9.952423 -4.373016,-19.904854 -7.690521,-29.555672c-3.317474,-9.801651 -7.690491,-18.396927 -13.873077,-26.690613c-4.071411,-5.579369 -8.896851,-10.254005 -14.325439,-14.476227c-9.047668,-7.087341 -18.547668,-11.460358 -29.555634,-14.325455c-27.896912,-7.238129 -56.397034,0.150787 -80.222534,14.17466c-24.579437,14.47625 -43.730316,34.531868 -58.206589,58.960533c-5.880936,9.952408 -9.952377,20.357208 -13.269867,31.365234c-4.674606,15.833389 -8.142899,31.968338 -11.912735,47.95253c-2.261948,9.198456 -6.182571,27.293777 -9.047653,36.492233c-1.357147,4.222214 -2.71431,8.293671 -4.976242,12.21434c-1.357117,2.563461 -2.865051,4.976181 -5.277771,6.634933c-1.357162,1.055527 -9.952408,3.468246 -11.460358,3.920654c-3.92067,1.206345 -7.690536,2.412674 -11.611176,3.619064c-26.690582,8.293671 -53.230347,16.738159 -79.920944,25.031845" />
  <path d="m549.192566,106.611496c-26.388977,8.142891 -52.627167,16.285759 -79.016174,24.428635c-9.198456,2.865128 -12.51593,5.579391 -18.849274,-4.071411c-4.373016,-6.785744 -6.936554,-14.174652 -9.349274,-21.714363c-3.769836,-11.761978 -6.484131,-23.674721 -9.650818,-35.587448c-1.80954,-6.634964 -3.769836,-13.119095 -6.333374,-19.603256c-1.658691,-4.222229 -3.468231,-8.142899 -6.484131,-11.611153c-3.920654,-4.825424 -8.142883,-9.198448 -13.11911,-12.9683c-8.142883,-6.333366 -16.888885,-10.706413 -26.841339,-13.57148c-27.142944,-7.841309 -55.793854,-1.658752 -79.468536,11.611137c-24.730255,13.87307 -43.579529,33.325546 -58.357361,57.301811c-5.881012,9.650826 -9.952438,19.754059 -13.722305,30.309654c-5.428574,15.682579 -9.047653,31.515968 -12.214294,47.650993c-2.563538,13.119064 -4.222244,26.388992 -7.841339,39.3573c-1.206329,4.071411 -2.412674,7.841278 -4.523819,11.61113c-1.206345,2.261917 -2.412674,4.22226 -4.976196,5.277802c-3.468246,1.357178 -7.087357,2.261917 -10.706406,3.31749c-3.619049,1.055573 -7.238129,2.261902 -10.857162,3.31749c-26.389023,8.142868 -52.627228,16.285751 -79.01622,24.428635" />
  <path d="m537.882996,100.881332c-26.388977,7.992126 -52.777985,16.13501 -79.166962,24.127075c-6.484131,1.960358 -12.968323,3.92067 -19.452454,5.880966c-1.80954,0.603226 -3.166687,1.20639 -4.825439,-0.301544c-2.563477,-2.261917 -3.920654,-6.484192 -4.825378,-9.500076c-4.976257,-14.777817 -6.634979,-30.309601 -9.952423,-45.38903c-1.658752,-7.087341 -3.317505,-14.174675 -5.730225,-21.111206c-1.507935,-4.373039 -3.166626,-8.444496 -5.730164,-12.365128c-3.468231,-5.127022 -7.238037,-9.952438 -11.761871,-14.325455c-7.087402,-6.936546 -14.928711,-11.912758 -23.976349,-15.68261c-25.936584,-10.857193 -55.793823,-7.087326 -80.222504,4.825424c-25.182617,12.214317 -45.539856,31.817566 -60.770065,54.738319c-15.682587,23.825462 -22.317566,50.365257 -26.8414,77.659035c-2.261902,13.722275 -3.619019,27.444519 -7.238129,41.015991c-1.055542,4.071472 -2.261902,7.992126 -4.222214,11.611176c-1.206345,2.261917 -2.11113,4.222229 -4.825439,5.126999c-3.317459,1.206375 -6.785736,2.111115 -10.253983,3.166687c-3.468262,1.055573 -6.936539,2.111115 -10.404816,3.166687c-26.388992,7.992081 -52.777985,16.134964 -79.166969,24.127075" />
  <path d="m527.025818,95.603531c-25.936554,7.841339 -51.873169,15.682594 -77.809814,23.373108c-7.087311,2.111115 -14.174652,4.222267 -21.261932,6.333389c-2.261932,0.603157 -3.769867,0.452354 -5.428619,-1.20639c-2.865082,-3.015884 -4.071472,-6.634941 -5.428589,-10.25399c-1.80957,-4.976189 -9.650818,-34.833481 -11.158783,-39.960472c-3.015869,-9.952431 -6.634888,-19.452469 -11.611176,-28.650902c-3.317444,-6.182579 -6.785736,-11.912758 -11.912689,-16.888954c-7.087341,-7.238129 -14.928619,-12.666733 -24.127075,-16.888977c-25.182617,-11.309555 -54.738312,-7.992065 -78.714569,3.31749c-24.579498,11.46035 -45.389084,30.762032 -60.016144,53.230385c-5.579346,8.444481 -9.80162,17.492134 -13.722275,26.841347c-6.634933,16.134972 -9.198441,32.722382 -11.761963,49.611298c-2.111099,13.722275 -3.166656,27.595383 -6.936508,41.016052c-1.055557,3.769852 -2.111145,7.388901 -4.222244,10.857193c-1.20636,1.960312 -2.563507,3.468262 -4.825424,4.071426c-6.785736,2.111099 -13.722275,4.071457 -20.508011,6.182571c-25.936615,7.841309 -51.873215,15.682587 -77.809822,23.373093" />
  <path d="m516.470215,90.476547c-25.484192,7.539711 -51.119202,15.230232 -76.603424,22.769943c-4.071472,1.206329 -8.293671,2.412704 -12.365143,3.769852c-1.055542,0.301559 -11.30957,3.468246 -12.5159,3.468246c-5.880981,0.452408 -10.254028,-5.579361 -12.817505,-9.500015c-6.484192,-10.103241 -10.253998,-23.373108 -13.269897,-34.682678c-3.015869,-10.857208 -5.880981,-21.714378 -10.555573,-32.119179c-2.714294,-5.880997 -6.182526,-11.00798 -10.555603,-15.833397c-6.182526,-6.785736 -13.11908,-12.063538 -21.412811,-16.134995c-24.42865,-12.214325 -53.531921,-9.952408 -77.357391,0.452377c-24.42868,10.706406 -45.238266,29.555687 -59.714554,51.571632c-5.428589,8.142899 -9.500031,16.73819 -13.269882,25.785843c-2.71431,6.484138 -4.523834,13.269875 -6.031784,20.055618c-2.261902,9.80162 -3.769852,19.603249 -5.126984,29.555687c-1.960327,13.571487 -3.015884,27.293747 -6.936554,40.714447c-1.055542,3.619034 -2.111099,7.08728 -4.222244,10.253967c-1.206329,1.80957 -2.714264,2.865128 -4.825409,3.468307c-6.785736,1.960297 -13.72226,4.071411 -20.508011,6.031769c-25.4842,7.539703 -51.119217,15.230225 -76.603462,22.769928" />
  <path d="m506.06546,85.34951c-25.333435,7.388901 -50.817688,14.928612 -76.151093,22.31752c-8.746063,2.563507 -17.492157,5.127037 -26.087402,7.690514c-2.261902,0.603172 -4.373016,1.35714 -6.634979,1.960358c-1.206329,0.301559 -5.126984,1.809502 -6.634918,1.206345c-1.658722,-0.753975 -2.41272,-1.96032 -3.468262,-3.317505c-1.507904,-2.261909 -2.563477,-4.523827 -3.468262,-6.936501c-3.166656,-7.992119 -4.976196,-16.436607 -7.238098,-24.730293c-4.523834,-16.888924 -9.198456,-33.174706 -19.150879,-48.254128c-5.127014,-7.841301 -11.30954,-14.023872 -19.150848,-19.150871c-22.920746,-15.079422 -51.87323,-15.079422 -76.30191,-6.182571c-25.031845,9.047653 -46.293793,27.29377 -61.222427,48.706551c-5.579361,7.992096 -9.801636,16.436592 -13.72229,25.182625c-2.865082,6.333389 -4.674591,12.817505 -6.182541,19.603241c-2.261917,9.801628 -3.92067,19.754066 -5.277802,29.706497c-1.80954,13.571487 -2.865112,26.992157 -6.785736,40.262024c-1.055573,3.619064 -2.111145,6.936539 -4.22226,10.103241c-1.20636,1.809509 -2.714294,2.865067 -4.825394,3.468246c-6.785767,1.960358 -13.571503,4.071472 -20.357239,6.031769c-25.333427,7.388916 -50.817657,14.928619 -76.151089,22.317566" />
  <path d="m495.962219,80.222504c-24.881042,7.238106 -49.762085,14.476265 -74.643158,21.714371c-9.952423,2.865074 -19.904846,5.730156 -29.857239,8.74604c-2.563477,0.753975 -5.127014,1.507942 -7.539673,2.261917c-2.865143,0.753967 -5.127045,0.753967 -7.690521,-0.753975c-3.619049,-2.111107 -5.730194,-5.126999 -7.841278,-8.444443c-3.468292,-5.428596 -5.881012,-11.158813 -8.142883,-17.03978c-6.182617,-15.9842 -9.349304,-32.873116 -17.492157,-48.254135c-4.222229,-8.142899 -10.10321,-14.174667 -17.341339,-19.603256c-21.412781,-16.134995 -50.06369,-17.039734 -74.190765,-9.047653c-24.730225,8.293686 -45.841446,25.48423 -60.317703,46.746223c-5.428574,7.841301 -9.500031,16.285789 -13.269882,24.881027c-2.714294,6.333374 -4.523819,12.817513 -6.031769,19.452446c-2.261917,9.500061 -3.769852,19.000084 -5.126999,28.500153c-1.80954,13.119064 -2.865082,26.23819 -6.936539,39.055695c-1.055573,3.317444 -2.111115,6.484131 -4.373032,9.349213c-1.357147,1.658752 -3.015884,2.261917 -4.976212,2.865128c-6.936539,1.960312 -13.873077,4.071411 -20.809601,6.031769c-24.88105,7.238083 -49.7621,14.476212 -74.643154,21.714355" />
  <path d="m485.858978,75.246307c-24.579437,7.087364 -49.158905,14.174667 -73.738373,21.111198c-10.70639,3.015869 -21.261993,6.182579 -31.968353,9.198463c-5.428619,1.507942 -10.857147,3.166695 -16.285736,4.674637c-2.111115,0.603157 -5.880981,2.261917 -8.293701,0.603157c-1.960358,-1.357124 -3.166687,-3.166687 -4.373016,-5.277794c-1.80957,-3.166687 -3.166718,-6.634941 -4.523834,-10.103226c-2.865082,-7.841278 -4.976227,-15.833397 -7.690521,-23.523872c-2.41272,-6.785759 -4.825409,-13.420708 -7.690521,-20.055672c-4.071411,-9.34922 -8.444427,-18.246078 -15.380981,-26.087395c-4.373047,-4.825417 -11.611176,-9.650826 -17.190521,-12.515907c-5.881012,-2.865112 -11.761963,-4.674622 -18.095306,-5.730179c-12.365173,-2.261917 -23.8255,-1.50795 -35.889053,1.658722c-25.484253,6.634949 -46.143066,22.769943 -61.37326,43.428734c-5.730179,7.841301 -9.952438,16.13501 -13.571487,25.03186c-6.333374,15.079422 -9.047653,30.611206 -11.611176,46.595406c-1.960297,12.666702 -3.015884,25.484222 -7.087326,37.849365c-1.055542,3.31749 -2.111115,6.484131 -4.523819,9.198471c-1.357147,1.658722 -3.166672,2.261902 -5.127014,2.865067c-7.087326,1.960312 -14.023849,4.071457 -21.111183,6.031769c-24.57946,7.087341 -49.15892,14.174637 -73.738392,21.111191" />
  <path d="m475.303406,70.119324c-23.82547,6.785736 -47.801819,13.57148 -71.627289,20.357224c-11.460358,3.317482 -22.920715,6.484123 -34.381012,9.80162c-5.881042,1.658752 -11.761993,3.31749 -17.492126,4.976189c-3.0159,0.904778 -5.730194,1.658752 -8.896912,0.753975c-3.920624,-1.206337 -6.634918,-3.468246 -9.198395,-6.484131c-3.317474,-3.92067 -5.428619,-8.142883 -7.539734,-12.666702c-3.166687,-6.936554 -5.579407,-14.023895 -7.992096,-21.262009c-3.920685,-11.158783 -8.444489,-23.523911 -16.134979,-33.023949c-9.198456,-11.309563 -19.452484,-17.944496 -33.777924,-21.261971c-11.460327,-2.714294 -22.166763,-2.563507 -33.476318,-0.150803c-25.33342,5.428604 -45.238281,21.111183 -60.166885,41.016022c-6.031769,7.992096 -9.80162,16.738197 -13.269913,25.785851c-5.428589,14.174652 -8.746063,28.801659 -11.460373,43.730324c-2.261902,11.761932 -3.317459,23.523865 -7.690491,34.984238c-1.20636,3.015884 -2.412704,5.880966 -4.825409,8.293686c-1.50795,1.507935 -3.468277,1.960342 -5.428604,2.563522c-7.388916,2.111099 -14.777832,4.222214 -22.015945,6.182571c-23.8255,6.785736 -47.801781,13.571472 -71.627266,20.357224" />
  <path d="m465.049408,65.143082c-23.373108,6.484138 -46.746216,13.119064 -70.119263,19.603249c-11.460388,3.166702 -23.071533,6.484138 -34.531921,9.650826c-5.880951,1.658745 -11.761963,3.31749 -17.642914,4.976173c-3.015869,0.904793 -5.880981,1.65876 -8.896881,2.563545c-3.015869,0.90477 -5.880951,1.960297 -9.047638,2.563507c-3.317444,0.603172 -6.182556,-1.206375 -8.444489,-3.317474c-3.920624,-3.769867 -6.333344,-8.293694 -8.89682,-12.968323c-3.468292,-6.484138 -6.484192,-13.269875 -9.349274,-20.206413c-3.166687,-7.841301 -6.031769,-15.833397 -9.650818,-23.523895c-4.071472,-8.142891 -7.539703,-13.722282 -14.92865,-19.452461c-4.825378,-3.619064 -9.952423,-6.333359 -15.682587,-8.293686c-9.952423,-3.468277 -19.452438,-4.222244 -29.857239,-2.865082c-25.182648,3.166656 -45.539871,17.793716 -60.016129,37.54776c-5.880966,7.992088 -8.595276,16.738159 -10.857193,25.936623c-3.619049,14.476204 -5.428589,29.103279 -9.047653,43.579521c-2.412704,9.650833 -5.126999,18.849274 -10.10321,27.595322c-2.563492,4.373032 -6.182556,9.80162 -11.761948,11.460388c-8.444481,2.563507 -17.039742,4.825424 -25.484222,7.087326c-23.373108,6.484146 -46.746208,13.11908 -70.119316,19.603256" />
  <path d="m455.39859,60.317665c-46.143066,12.817543 -92.286011,25.484238 -138.278259,38.301743c-3.468292,0.904793 -6.936584,1.96032 -10.404816,2.865097c-3.61908,1.05558 -6.785736,2.563522 -10.70639,0c-5.428619,-3.619072 -8.896851,-11.007957 -11.611176,-16.285759c-4.523834,-8.746094 -8.595245,-17.642937 -12.365082,-26.690598c-3.769867,-9.047653 -7.087372,-17.944511 -13.72229,-25.635017c-3.769867,-4.523827 -8.444519,-7.087326 -13.571487,-9.500053c-8.293686,-3.769852 -16.285812,-4.825394 -25.182663,-4.373016c-25.333435,1.357132 -45.539841,15.833397 -59.111328,35.889008c-1.960327,2.865074 -3.61908,5.730186 -4.976212,8.896843c-1.960327,4.825417 -3.166672,9.801666 -4.373032,14.92865c-3.31749,15.079422 -4.373047,30.460457 -6.936539,45.539879c-1.20636,6.484131 -2.261917,12.817505 -4.976212,18.849274c-1.357147,3.015884 -2.714279,5.428604 -6.333359,6.484146c-4.523819,1.206375 -9.047653,2.563507 -13.57148,3.769852c-9.198433,2.563522 -18.396904,5.126999 -27.595345,7.690506c-23.071503,6.333374 -46.143036,12.81752 -69.214552,19.150894" />
  <path d="m445.898529,55.643059c-44.484314,12.214348 -88.968597,24.277885 -133.302063,36.492233c-8.746063,2.412712 -17.492157,4.825378 -26.389008,7.238083c-2.261902,0.603188 -4.523834,1.206398 -6.634949,1.809578c-2.563507,0.753967 -4.674591,0.301552 -6.936523,-1.20639c-3.317474,-2.261917 -5.277771,-5.277794 -7.388916,-8.444443c-2.865082,-4.674622 -5.277832,-9.500069 -7.841309,-14.325455c-3.920624,-7.388947 -7.539719,-14.777863 -11.309586,-22.166771c-3.166641,-6.484146 -6.484131,-12.817505 -11.309555,-18.396889c-3.317459,-3.769859 -5.579361,-5.127022 -10.253998,-6.785744c-3.166687,-1.206352 -6.484161,-1.960327 -9.952408,-2.412704c-10.555618,-1.357155 -19.603241,0.150787 -29.25412,4.523827c-5.277786,2.412704 -9.952393,5.428589 -14.325439,9.047653c-6.634949,5.428589 -9.952408,9.198441 -13.72226,16.888939c-4.674637,9.500069 -7.539734,19.301689 -10.404831,29.404869c-1.658722,5.880981 -3.317459,11.912743 -4.825409,17.944511c-1.658722,6.333374 -2.865082,12.666756 -4.674606,18.849281c-1.50795,4.976242 -3.0159,9.650864 -5.880981,14.023895c-1.658737,2.714279 -3.468277,4.523834 -6.785744,5.428604c-4.825409,1.357147 -9.500038,2.563461 -14.325455,3.920609c-9.650818,2.714325 -19.301651,5.277802 -29.103287,7.992126c-22.166748,6.031769 -44.484291,12.21434 -66.651044,18.246109" />
  <path d="m436.549316,51.119232c-42.373199,11.460373 -84.595551,22.920753 -126.968719,34.381119c-10.254028,2.714279 -20.508026,5.579353 -30.761993,8.293678c-5.277802,1.357147 -10.404846,2.865089 -15.682648,4.222229c-6.484131,1.809547 -10.254013,4.373024 -16.436554,-1.206337c-5.880997,-5.277802 -15.682602,-22.166771 -19.603256,-28.500145c-4.976196,-7.992081 -10.404816,-18.698486 -18.849274,-24.428665c-8.293686,-5.579391 -19.000092,-5.127022 -27.74617,-1.960327c-11.91272,4.523827 -20.80957,13.57148 -25.936584,24.88105c-5.428604,11.611168 -7.539688,23.825516 -10.857193,35.889015c-2.261902,8.444473 -5.126999,18.547707 -11.761932,25.333443c-4.222244,4.373032 -8.444489,7.690521 -14.627052,9.349228c-5.127007,1.357178 -10.25399,2.71431 -15.381004,4.22226c-10.404816,2.865082 -20.809608,5.579361 -31.214409,8.444489c-21.111195,5.730164 -42.37318,11.460327 -63.484374,17.190536" />
  <path d="m427.35083,46.444611c-37.547729,10.103203 -75.246277,20.055618 -112.794067,30.158852c-18.849243,4.976189 -37.547729,10.103218 -56.397003,15.079422c-7.992096,2.111099 -16.134995,4.373016 -24.127075,6.484123c-2.111145,0.603218 -4.22226,1.05558 -6.634979,0.603218c-2.563477,-0.452408 -4.674606,-1.65876 -6.634933,-3.317482c-2.563507,-2.111122 -4.523834,-4.825439 -6.785721,-7.388924c-1.960358,-2.261917 -4.222244,-4.523827 -6.634964,-6.333374c-7.841309,-5.730164 -18.698486,-5.126984 -27.14296,-3.015884c-10.254028,2.563515 -18.547714,6.634949 -26.238205,14.023895c-3.920654,3.769859 -7.087326,7.992073 -9.952423,12.5159c-3.166672,5.126991 -5.579376,10.706398 -9.650833,15.381027c-2.865082,3.468254 -6.182556,5.579361 -10.555595,6.634941c-3.619064,1.055542 -7.388916,1.960312 -11.007973,3.015884c-37.54776,10.103195 -75.246334,20.206421 -112.794098,30.158844" />
</svg>
